<svg id="Logo" xmlns="http://www.w3.org/2000/svg" viewBox="0 0 432.2 162.8"><defs><style>.cls-1{fill:#414042;}.cls-2{fill:#5bc0aa;}</style></defs><title>logo</title><path class="cls-1" d="M14.9,142.5H25.2a14.86,14.86,0,0,1,7.1,1.6,12.78,12.78,0,0,1,4.8,17.5,11.62,11.62,0,0,1-4.8,4.5,14.59,14.59,0,0,1-7.1,1.6H14.9V142.5Zm10.2,22.9a12.09,12.09,0,0,0,5.8-1.3,10.42,10.42,0,0,0,3.9-3.6,10.73,10.73,0,0,0,0-10.6,9.08,9.08,0,0,0-3.9-3.6,12.09,12.09,0,0,0-5.8-1.3H17.6v20.6h7.5v-0.2Z" transform="translate(-14.9 -11.9)"/><path class="cls-1" d="M45,144a1.66,1.66,0,0,1-.5-1.3,2.11,2.11,0,0,1,.5-1.3,1.66,1.66,0,0,1,1.3-.5,1.9,1.9,0,0,1,1.3.5,1.46,1.46,0,0,1,.5,1.2,1.9,1.9,0,0,1-.5,1.3,1.66,1.66,0,0,1-1.3.5A1.57,1.57,0,0,1,45,144Zm0,4.7h2.6v18.9H45V148.7Z" transform="translate(-14.9 -11.9)"/><path class="cls-1" d="M67.8,150.4a7.25,7.25,0,0,1,2,5.5v11.7H67.4v-3a5.58,5.58,0,0,1-2.5,2.3,8.17,8.17,0,0,1-4,.8,7.65,7.65,0,0,1-5-1.5,5,5,0,0,1-1.9-4,5.07,5.07,0,0,1,1.7-3.9c1.2-1,3-1.5,5.6-1.5h6v-1.2a4.82,4.82,0,0,0-1.4-3.7,5.36,5.36,0,0,0-4-1.3,10.3,10.3,0,0,0-3.5.6,7.62,7.62,0,0,0-2.8,1.6l-1.2-1.9a11.7,11.7,0,0,1,3.5-1.9,14.78,14.78,0,0,1,4.2-.7A10.5,10.5,0,0,1,67.8,150.4Zm-2.9,14.4a6.11,6.11,0,0,0,2.3-2.9v-3.1H61.3c-3.2,0-4.9,1.1-4.9,3.4a2.93,2.93,0,0,0,1.3,2.6,5.83,5.83,0,0,0,3.5,1A6.63,6.63,0,0,0,64.9,164.8Z" transform="translate(-14.9 -11.9)"/><path class="cls-1" d="M95,148.7v16.6c0,3.2-.8,5.6-2.4,7.1s-3.9,2.3-7.1,2.3a16.36,16.36,0,0,1-5-.8,9.21,9.21,0,0,1-3.8-2.1L78,170a8.94,8.94,0,0,0,3.3,1.9,11.41,11.41,0,0,0,4.1.7c2.4,0,4.2-.6,5.3-1.7s1.7-2.8,1.7-5.2v-2.4a7.36,7.36,0,0,1-3.1,2.7,10,10,0,0,1-4.3.9,9.5,9.5,0,0,1-4.8-1.2,9,9,0,0,1-3.4-3.3,10.2,10.2,0,0,1,0-9.6,8.06,8.06,0,0,1,3.4-3.2,9.88,9.88,0,0,1,4.9-1.2,9.2,9.2,0,0,1,4.4,1,7.6,7.6,0,0,1,3.1,2.8v-3.6H95v0.1Zm-6,15.1a6.27,6.27,0,0,0,2.6-2.5,7.65,7.65,0,0,0,0-7.2,6,6,0,0,0-2.6-2.4,7.58,7.58,0,0,0-10,2.4,7.65,7.65,0,0,0,0,7.2,6.27,6.27,0,0,0,2.6,2.5A8.06,8.06,0,0,0,89,163.8Z" transform="translate(-14.9 -11.9)"/><path class="cls-1" d="M118.2,150.6a8.12,8.12,0,0,1,2.1,6v11h-2.6V156.9a6.11,6.11,0,0,0-1.5-4.5,5.68,5.68,0,0,0-4.2-1.5,6.33,6.33,0,0,0-4.8,1.8,7.25,7.25,0,0,0-1.8,5v9.9h-2.6V148.7h2.4v3.5a7.54,7.54,0,0,1,2.9-2.7,9.73,9.73,0,0,1,4.3-1A8.68,8.68,0,0,1,118.2,150.6Z" transform="translate(-14.9 -11.9)"/><path class="cls-1" d="M130.9,166.6a9.51,9.51,0,0,1-3.5-3.4,10.33,10.33,0,0,1-1.3-5,9.58,9.58,0,0,1,1.3-5,8.2,8.2,0,0,1,3.5-3.4,10.16,10.16,0,0,1,4.9-1.2,9.88,9.88,0,0,1,4.9,1.2,8.56,8.56,0,0,1,3.4,3.4,10.27,10.27,0,0,1,1.2,5,10.55,10.55,0,0,1-1.2,5,8.56,8.56,0,0,1-3.4,3.4,10.16,10.16,0,0,1-4.9,1.2A9.88,9.88,0,0,1,130.9,166.6Zm8.5-1.9a6.27,6.27,0,0,0,2.5-2.6,8,8,0,0,0,.9-3.9,8.6,8.6,0,0,0-.9-3.9,6.27,6.27,0,0,0-2.5-2.6,7.4,7.4,0,0,0-3.6-.9,7.13,7.13,0,0,0-3.6.9,6.27,6.27,0,0,0-2.5,2.6,8,8,0,0,0-.9,3.9,8.6,8.6,0,0,0,.9,3.9,7,7,0,0,0,2.5,2.6A7.65,7.65,0,0,0,139.4,164.7Z" transform="translate(-14.9 -11.9)"/><path class="cls-1" d="M152,167.2a8.53,8.53,0,0,1-3.3-1.7l1.2-2a10.51,10.51,0,0,0,3,1.5,11.48,11.48,0,0,0,3.7.6,7.41,7.41,0,0,0,3.8-.8,2.56,2.56,0,0,0,1.2-2.3,1.86,1.86,0,0,0-.7-1.6,4.61,4.61,0,0,0-1.7-.9,25.69,25.69,0,0,0-2.8-.6,33.66,33.66,0,0,1-3.7-.9,6.08,6.08,0,0,1-2.4-1.5,4,4,0,0,1-1-3,4.74,4.74,0,0,1,2-3.9,9,9,0,0,1,5.5-1.5,16.41,16.41,0,0,1,3.7.5,10.42,10.42,0,0,1,3,1.3l-1.1,2.1a9.47,9.47,0,0,0-5.6-1.6,6.31,6.31,0,0,0-3.7.9,2.68,2.68,0,0,0-1.2,2.3,2.06,2.06,0,0,0,.7,1.7,4.78,4.78,0,0,0,1.7,1,28.44,28.44,0,0,0,2.9.6,31.14,31.14,0,0,1,3.6.9,5.13,5.13,0,0,1,2.3,1.5,4.41,4.41,0,0,1,1,2.9,4.36,4.36,0,0,1-2.1,3.9,9.63,9.63,0,0,1-5.7,1.5C154.9,167.8,153.4,167.6,152,167.2Z" transform="translate(-14.9 -11.9)"/><path class="cls-1" d="M169.6,144a1.66,1.66,0,0,1-.5-1.3,2.11,2.11,0,0,1,.5-1.3,1.66,1.66,0,0,1,1.3-.5,1.9,1.9,0,0,1,1.3.5,1.46,1.46,0,0,1,.5,1.2,1.9,1.9,0,0,1-.5,1.3,1.66,1.66,0,0,1-1.3.5A1.57,1.57,0,0,1,169.6,144Zm0.1,4.7h2.6v18.9h-2.6V148.7Z" transform="translate(-14.9 -11.9)"/><path class="cls-1" d="M180.7,167.2a8.53,8.53,0,0,1-3.3-1.7l1.2-2a10.51,10.51,0,0,0,3,1.5,11.48,11.48,0,0,0,3.7.6,7.41,7.41,0,0,0,3.8-.8,2.56,2.56,0,0,0,1.2-2.3,1.86,1.86,0,0,0-.7-1.6,4.61,4.61,0,0,0-1.7-.9,25.69,25.69,0,0,0-2.8-.6,33.66,33.66,0,0,1-3.7-.9A6.08,6.08,0,0,1,179,157a4,4,0,0,1-1-3,4.74,4.74,0,0,1,2-3.9,9,9,0,0,1,5.5-1.5,16.41,16.41,0,0,1,3.7.5,10.42,10.42,0,0,1,3,1.3l-1.1,2.1a9.47,9.47,0,0,0-5.6-1.6,6.31,6.31,0,0,0-3.7.9,2.68,2.68,0,0,0-1.2,2.3,2.06,2.06,0,0,0,.7,1.7,4.78,4.78,0,0,0,1.7,1,28.44,28.44,0,0,0,2.9.6,31.14,31.14,0,0,1,3.6.9,5.13,5.13,0,0,1,2.3,1.5,4.41,4.41,0,0,1,1,2.9,4.36,4.36,0,0,1-2.1,3.9,9.63,9.63,0,0,1-5.7,1.5C183.6,167.8,182.1,167.6,180.7,167.2Z" transform="translate(-14.9 -11.9)"/><path class="cls-1" d="M237.8,150.6c1.4,1.4,2,3.4,2,6v11h-2.6V156.9a6.55,6.55,0,0,0-1.4-4.5,5.2,5.2,0,0,0-4-1.5,5.88,5.88,0,0,0-4.6,1.8,7.2,7.2,0,0,0-1.7,5v9.9h-2.6V156.9a6.55,6.55,0,0,0-1.4-4.5,5.2,5.2,0,0,0-4-1.5,6,6,0,0,0-4.6,1.8,7.2,7.2,0,0,0-1.7,5v9.9h-2.6V148.7H211v3.5a7.27,7.27,0,0,1,2.8-2.7,8,8,0,0,1,4.1-.9,7.56,7.56,0,0,1,4.1,1,6.36,6.36,0,0,1,2.6,3,7.62,7.62,0,0,1,3-2.9,9.36,9.36,0,0,1,4.5-1.1A8.07,8.07,0,0,1,237.8,150.6Z" transform="translate(-14.9 -11.9)"/><path class="cls-1" d="M259.8,150.4a7.25,7.25,0,0,1,2,5.5v11.7h-2.4v-3a5.58,5.58,0,0,1-2.5,2.3,8.17,8.17,0,0,1-4,.8,7.65,7.65,0,0,1-5-1.5,5,5,0,0,1-1.9-4,5.07,5.07,0,0,1,1.7-3.9c1.1-1,3-1.5,5.6-1.5h6v-1.2a4.82,4.82,0,0,0-1.4-3.7,5.36,5.36,0,0,0-4-1.3,10.3,10.3,0,0,0-3.5.6,7.62,7.62,0,0,0-2.8,1.6l-1.2-1.9a11.7,11.7,0,0,1,3.5-1.9,14.78,14.78,0,0,1,4.2-.7C256.6,148.6,258.5,149.2,259.8,150.4Zm-2.9,14.4a6.11,6.11,0,0,0,2.3-2.9v-3.1h-5.9c-3.2,0-4.9,1.1-4.9,3.4a2.93,2.93,0,0,0,1.3,2.6,5.83,5.83,0,0,0,3.5,1A6.41,6.41,0,0,0,256.9,164.8Z" transform="translate(-14.9 -11.9)"/><path class="cls-1" d="M286.8,140.9v26.7h-2.4v-3.7a8.31,8.31,0,0,1-3,2.9,8.54,8.54,0,0,1-4.3,1,9.5,9.5,0,0,1-4.8-1.2,9.24,9.24,0,0,1-3.4-3.4,11,11,0,0,1,0-10,8,8,0,0,1,3.4-3.4,9.5,9.5,0,0,1,4.8-1.2,8.68,8.68,0,0,1,4.2,1,8.08,8.08,0,0,1,3,2.8V141h2.5v-0.1Zm-6,23.8a6.27,6.27,0,0,0,2.5-2.6,8,8,0,0,0,.9-3.9,8.6,8.6,0,0,0-.9-3.9,7,7,0,0,0-2.5-2.6,7.4,7.4,0,0,0-3.6-.9,7.13,7.13,0,0,0-3.6.9,6.27,6.27,0,0,0-2.5,2.6,8,8,0,0,0-.9,3.9,8.6,8.6,0,0,0,.9,3.9,7,7,0,0,0,2.5,2.6,7.4,7.4,0,0,0,3.6.9A7.13,7.13,0,0,0,280.8,164.7Z" transform="translate(-14.9 -11.9)"/><path class="cls-1" d="M311.1,159H295.3a6.5,6.5,0,0,0,2.3,4.8,7.65,7.65,0,0,0,5.2,1.8,7.94,7.94,0,0,0,3.2-.6,6.72,6.72,0,0,0,2.6-1.9l1.4,1.7a7.55,7.55,0,0,1-3.2,2.3,11.22,11.22,0,0,1-4.2.8,11.07,11.07,0,0,1-5.2-1.2,8.82,8.82,0,0,1-3.5-3.4,10.33,10.33,0,0,1-1.3-5,10.55,10.55,0,0,1,1.2-5,8.32,8.32,0,0,1,3.3-3.4,9.39,9.39,0,0,1,4.7-1.2,9.13,9.13,0,0,1,4.7,1.2,9,9,0,0,1,3.3,3.4,10,10,0,0,1,1.2,5Zm-13.7-6.5a7.32,7.32,0,0,0-2.1,4.6h13.4a7.32,7.32,0,0,0-2.1-4.6,6.26,6.26,0,0,0-4.6-1.7A6.52,6.52,0,0,0,297.4,152.5Z" transform="translate(-14.9 -11.9)"/><path class="cls-1" d="M327.9,167.2a8.53,8.53,0,0,1-3.3-1.7l1.2-2a10.51,10.51,0,0,0,3,1.5,11.48,11.48,0,0,0,3.7.6,7.41,7.41,0,0,0,3.8-.8,2.56,2.56,0,0,0,1.2-2.3,1.86,1.86,0,0,0-.7-1.6,4.61,4.61,0,0,0-1.7-.9,25.69,25.69,0,0,0-2.8-.6,33.67,33.67,0,0,1-3.7-.9,6.08,6.08,0,0,1-2.4-1.5,4,4,0,0,1-1-3,4.74,4.74,0,0,1,2-3.9,9,9,0,0,1,5.5-1.5,16.41,16.41,0,0,1,3.7.5,10.42,10.42,0,0,1,3,1.3l-1.1,2.1a9.47,9.47,0,0,0-5.6-1.6,6.31,6.31,0,0,0-3.7.9,2.68,2.68,0,0,0-1.2,2.3,2.06,2.06,0,0,0,.7,1.7,4.78,4.78,0,0,0,1.7,1,28.44,28.44,0,0,0,2.9.6,31.14,31.14,0,0,1,3.6.9,5.13,5.13,0,0,1,2.3,1.5,4.41,4.41,0,0,1,1,2.9,4.36,4.36,0,0,1-2.1,3.9,9.63,9.63,0,0,1-5.7,1.5C330.8,167.8,329.3,167.6,327.9,167.2Z" transform="translate(-14.9 -11.9)"/><path class="cls-1" d="M345.5,144a1.66,1.66,0,0,1-.5-1.3,2.11,2.11,0,0,1,.5-1.3,1.66,1.66,0,0,1,1.3-.5,1.9,1.9,0,0,1,1.3.5,1.46,1.46,0,0,1,.5,1.2,1.9,1.9,0,0,1-.5,1.3,1.66,1.66,0,0,1-1.3.5A1.13,1.13,0,0,1,345.5,144Zm0.1,4.7h2.6v18.9h-2.6V148.7Z" transform="translate(-14.9 -11.9)"/><path class="cls-1" d="M385.2,150.6c1.4,1.4,2,3.4,2,6v11h-2.6V156.9a6.55,6.55,0,0,0-1.4-4.5,5.2,5.2,0,0,0-4-1.5,5.88,5.88,0,0,0-4.6,1.8,7.2,7.2,0,0,0-1.7,5v9.9h-2.6V156.9a6.55,6.55,0,0,0-1.4-4.5,5.2,5.2,0,0,0-4-1.5,6,6,0,0,0-4.6,1.8,7.2,7.2,0,0,0-1.7,5v9.9H356V148.7h2.4v3.5a7.27,7.27,0,0,1,2.8-2.7,9.15,9.15,0,0,1,4.1-.9,7.56,7.56,0,0,1,4.1,1,6.36,6.36,0,0,1,2.6,3,7.62,7.62,0,0,1,3-2.9,9.36,9.36,0,0,1,4.5-1.1A7.9,7.9,0,0,1,385.2,150.6Z" transform="translate(-14.9 -11.9)"/><path class="cls-1" d="M409.5,149.8a8.56,8.56,0,0,1,3.4,3.4,10.27,10.27,0,0,1,1.2,5,10,10,0,0,1-1.2,5,8,8,0,0,1-3.4,3.4,9.5,9.5,0,0,1-4.8,1.2,8.68,8.68,0,0,1-4.2-1,8,8,0,0,1-3-2.8v10.5h-2.6V148.6h2.4v3.7a9.22,9.22,0,0,1,3-2.9,8.8,8.8,0,0,1,4.3-1A13.25,13.25,0,0,1,409.5,149.8Zm-1.4,14.9a6.27,6.27,0,0,0,2.5-2.6,8,8,0,0,0,.9-3.9,7.9,7.9,0,0,0-.9-3.8,7,7,0,0,0-2.5-2.6,7.13,7.13,0,0,0-3.6-.9,7.4,7.4,0,0,0-3.6.9,6.27,6.27,0,0,0-2.5,2.6,7.9,7.9,0,0,0-.9,3.8,8.6,8.6,0,0,0,.9,3.9,7,7,0,0,0,2.5,2.6A7.65,7.65,0,0,0,408.1,164.7Z" transform="translate(-14.9 -11.9)"/><path class="cls-1" d="M420,140.9h2.6v26.7H420V140.9Z" transform="translate(-14.9 -11.9)"/><path class="cls-1" d="M446.9,159H431.1a6.5,6.5,0,0,0,2.3,4.8,7.65,7.65,0,0,0,5.2,1.8,7.94,7.94,0,0,0,3.2-.6,6.72,6.72,0,0,0,2.6-1.9l1.4,1.7a7.55,7.55,0,0,1-3.2,2.3,11.22,11.22,0,0,1-4.2.8,11.07,11.07,0,0,1-5.2-1.2,8.82,8.82,0,0,1-3.5-3.4,10.33,10.33,0,0,1-1.3-5,10.55,10.55,0,0,1,1.2-5,8.32,8.32,0,0,1,3.3-3.4,9.39,9.39,0,0,1,4.7-1.2,9.13,9.13,0,0,1,4.7,1.2,9,9,0,0,1,3.3,3.4,10,10,0,0,1,1.2,5Zm-13.7-6.5a7.32,7.32,0,0,0-2.1,4.6h13.4a7.32,7.32,0,0,0-2.1-4.6,6.26,6.26,0,0,0-4.6-1.7A6.52,6.52,0,0,0,433.2,152.5Z" transform="translate(-14.9 -11.9)"/><path class="cls-1" d="M274.2,40c2.6,3.3,3.9,8,3.9,14V87H262V56.2a11.15,11.15,0,0,0-1.2-5.8c-0.8-1.3-2.3-2-4.4-2a12.48,12.48,0,0,0-4.9,1.2,45,45,0,0,0-6,3.2V87H229.3V56.2a11.15,11.15,0,0,0-1.2-5.8c-0.8-1.3-2.3-2-4.4-2a12.48,12.48,0,0,0-4.9,1.2,52.62,52.62,0,0,0-6.1,3.2V87H196.4V36.8h10l2.8,5.3a43.84,43.84,0,0,1,9.6-5,26.72,26.72,0,0,1,9.5-1.9c6.8,0,11.5,2.2,14.2,6.5a50.75,50.75,0,0,1,9.3-4.7,26.32,26.32,0,0,1,9.2-1.8C267.3,35.1,271.6,36.7,274.2,40Z" transform="translate(-14.9 -11.9)"/><path class="cls-1" d="M293.5,52.3l-4.3-12.4a43.56,43.56,0,0,1,9.4-3.3,50,50,0,0,1,10.8-1.4,24,24,0,0,1,11.2,2.5,18.77,18.77,0,0,1,7.5,7A19.49,19.49,0,0,1,330.7,55V87h-9l-3.8-5.3c-3.7,4.3-7.8,6.4-12.3,6.4q-9.15,0-13.8-4.5c-3.1-3-4.7-7.1-4.7-12.3s1.7-8.9,5.2-11.5,8.2-3.8,14.2-3.8h7.9a7.06,7.06,0,0,0-2.1-5.1,7.22,7.22,0,0,0-5.1-1.8,29.62,29.62,0,0,0-6.8.9A30.9,30.9,0,0,0,293.5,52.3Zm7.2,18.9a4.38,4.38,0,0,0,1.3,3.2,4.75,4.75,0,0,0,3.5,1.3,13,13,0,0,0,8.8-3.9V65.7h-7.9A5.32,5.32,0,0,0,300.7,71.2Z" transform="translate(-14.9 -11.9)"/><path class="cls-1" d="M388.9,36.9V89a19.81,19.81,0,0,1-3.4,11.6,21.34,21.34,0,0,1-9.5,7.6,35.27,35.27,0,0,1-14.2,2.6,49,49,0,0,1-11-1.6,34,34,0,0,1-10.9-4.2l4.9-11.4a35.52,35.52,0,0,0,16,4.1,13.82,13.82,0,0,0,8.5-2.4,7.66,7.66,0,0,0,3.3-6.5V86a22.34,22.34,0,0,1-9.2,2.1c-7.8,0-14-2.3-18.6-6.8s-6.9-11-6.9-19.4,2.3-14.9,7-19.6,11.1-7.1,19.2-7.1a20.36,20.36,0,0,1,7.1,1.4,22.92,22.92,0,0,1,6.7,4l2.7-3.7h8.3ZM372.7,72.3V50.8a13.81,13.81,0,0,0-7.9-2.6,8.87,8.87,0,0,0-7.4,3.7c-1.9,2.5-2.8,5.8-2.8,9.8s0.9,7.4,2.8,9.8a9.41,9.41,0,0,0,7.8,3.6C367.5,75.2,370,74.2,372.7,72.3Z" transform="translate(-14.9 -11.9)"/><path class="cls-1" d="M447,66.3H414.8c1.5,5.9,5.9,8.8,13.3,8.8a29,29,0,0,0,14.2-3.9l4.6,11.3a27.5,27.5,0,0,1-8.6,4.1,39.86,39.86,0,0,1-11.2,1.6c-9.2,0-16.4-2.3-21.7-6.9s-7.9-11-7.9-19.3a28.81,28.81,0,0,1,3.3-14.1,23.13,23.13,0,0,1,9.3-9.3,27.66,27.66,0,0,1,13.6-3.3,23,23,0,0,1,12.9,3.5,21.33,21.33,0,0,1,7.9,9.4,33.21,33.21,0,0,1,2.6,13.3v4.8H447ZM414.6,57h17a11.79,11.79,0,0,0-2.7-6.2,7.12,7.12,0,0,0-5.7-2.3,7.76,7.76,0,0,0-5.7,2.3A9.77,9.77,0,0,0,414.6,57Z" transform="translate(-14.9 -11.9)"/><path class="cls-2" d="M122.3,52.3L118,39.9a43.56,43.56,0,0,1,9.4-3.3,50,50,0,0,1,10.8-1.4,24,24,0,0,1,11.2,2.5,18.77,18.77,0,0,1,7.5,7A19.49,19.49,0,0,1,159.5,55V87h-9l-3.8-5.3c-3.7,4.3-7.8,6.4-12.3,6.4q-9.15,0-13.8-4.5c-3.1-3-4.7-7.1-4.7-12.3s1.7-8.9,5.2-11.5,8.2-3.8,14.2-3.8h7.9a7.06,7.06,0,0,0-2.1-5.1,7.22,7.22,0,0,0-5.1-1.8,29.62,29.62,0,0,0-6.8.9A34.83,34.83,0,0,0,122.3,52.3Zm7.3,18.9a4.38,4.38,0,0,0,1.3,3.2,4.75,4.75,0,0,0,3.5,1.3,13,13,0,0,0,8.8-3.9V65.7h-7.9a5.65,5.65,0,0,0-4.2,1.6A5.28,5.28,0,0,0,129.6,71.2Z" transform="translate(-14.9 -11.9)"/><path class="cls-2" d="M177.9,29.8a8.94,8.94,0,0,1-6.3-2.6,8.38,8.38,0,0,1-2.6-6.3,9,9,0,0,1,2.6-6.4,8.38,8.38,0,0,1,6.3-2.6,9,9,0,0,1,6.4,2.6,8.6,8.6,0,0,1,2.6,6.4A8.88,8.88,0,0,1,177.9,29.8ZM169.8,87V36.8h16.3V87H169.8Z" transform="translate(-14.9 -11.9)"/><path class="cls-1" d="M43,87H15.2V16.6h26c7.8,0,14.1,1.6,18.9,4.9s7.2,8.3,7.2,15.1c0,4.3-2.3,8.5-7,12.6a22.9,22.9,0,0,1,7.4,7.1A17.7,17.7,0,0,1,70.4,66c0,7-2.6,12.2-7.7,15.7S51,87,43,87ZM39.9,29.6H31.4V44.2h7A18,18,0,0,0,47,42.4a5.75,5.75,0,0,0,3.4-5.3Q50.4,29.6,39.9,29.6Zm3.2,27.5H31.4V74H42.7a13.77,13.77,0,0,0,8-2.1,6.88,6.88,0,0,0,3-6,7.93,7.93,0,0,0-2.8-6.5A12.68,12.68,0,0,0,43.1,57.1Z" transform="translate(-14.9 -11.9)"/><path class="cls-1" d="M94.3,87H78.1V36.9h8.3L91,44a42.39,42.39,0,0,1,8.4-5,20.25,20.25,0,0,1,8.6-2.2l3.2,12.9a22.13,22.13,0,0,0-8.3,2,31.21,31.21,0,0,0-8.4,5.2V87H94.3Z" transform="translate(-14.9 -11.9)"/></svg>